<?xml version="1.0" encoding="utf-8"?>
<!-- Generator: Adobe Illustrator 16.0.4, SVG Export Plug-In . SVG Version: 6.00 Build 0)  -->
<!DOCTYPE svg PUBLIC "-//W3C//DTD SVG 1.1//EN" "http://www.w3.org/Graphics/SVG/1.1/DTD/svg11.dtd">
<svg version="1.1" id="Layer_1" xmlns="http://www.w3.org/2000/svg" xmlns:xlink="http://www.w3.org/1999/xlink" x="0px" y="0px"
	 width="50px" height="50px" viewBox="0 0 50 50" enable-background="new 0 0 50 50" xml:space="preserve">
<g>
	<path fill="#414042" d="M38.057,16.476l6.601-10.785c0.313-0.482,0.495-1.057,0.495-1.675c0-1.697-1.375-3.074-3.072-3.074h-0.003
		H24.246c-1.698,0-3.075,1.375-3.075,3.074v2.039h-9.807c-1.698,0-3.074,1.375-3.074,3.073v24.688c0,1.699,1.375,3.075,3.074,3.075
		h17.832c1.697,0,3.074-1.376,3.074-3.075v-2.038h9.807c1.117,0,2.146-0.605,2.688-1.584c0.541-0.978,0.51-2.17-0.082-3.118
		L38.057,16.476z M11.365,9.128h10.829v1.504c0,0.566,0.458,1.024,1.024,1.024c0.565,0,1.024-0.458,1.024-1.024V9.128h0.004V4.016
		h17.831l-7.635,12.478l7.635,12.211H29.196v0.006h-4.955V15.284c0-0.566-0.459-1.024-1.024-1.024c-0.566,0-1.024,0.458-1.024,1.024
		v14.445c0,0,0,0,0,0.003v0.006c0,0.017,0.005,0.034,0.005,0.051c0.003,0.048,0.005,0.097,0.015,0.145
		c0.006,0.034,0.018,0.063,0.027,0.095c0.009,0.034,0.017,0.065,0.03,0.097c0.013,0.032,0.03,0.06,0.045,0.089
		s0.029,0.061,0.047,0.088c0.02,0.029,0.044,0.055,0.065,0.082c0.021,0.023,0.038,0.049,0.061,0.071
		c0.037,0.04,0.081,0.074,0.125,0.107c0.01,0.007,0.017,0.015,0.026,0.02l0.003,0.004c0.001,0,0.003,0.002,0.004,0.002l4.719,3.23
		H11.365V9.128z M29.196,32.585l-2.667-1.823h2.667V32.585z"/>
	<path fill="#414042" d="M4.208,6.348c-0.849,0-1.537,0.687-1.537,1.538v40.091c0,0.85,0.688,1.537,1.537,1.537
		c0.849,0,1.537-0.688,1.537-1.537V7.886C5.745,7.035,5.057,6.348,4.208,6.348z"/>
	<circle fill="#414042" cx="4.208" cy="2.451" r="1.99"/>
</g>
</svg>
