<?xml version="1.0" encoding="utf-8"?>
<!-- Generator: Adobe Illustrator 16.0.4, SVG Export Plug-In . SVG Version: 6.00 Build 0)  -->
<!DOCTYPE svg PUBLIC "-//W3C//DTD SVG 1.1//EN" "http://www.w3.org/Graphics/SVG/1.1/DTD/svg11.dtd">
<svg version="1.1" id="Layer_1" xmlns="http://www.w3.org/2000/svg" xmlns:xlink="http://www.w3.org/1999/xlink" x="0px" y="0px"
	 width="150px" height="150px" viewBox="0 0 150 150" enable-background="new 0 0 150 150" xml:space="preserve">
<g>
	<path fill="#FFFFFF" d="M145.189,49.512c-0.908-2.408-3.591-3.619-6-2.716c-2.406,0.907-3.621,3.594-2.715,6
		c6.117,16.234,5.549,33.875-1.6,49.677c-7.152,15.806-20.028,27.878-36.261,34c-16.233,6.122-33.878,5.551-49.682-1.597
		c-5.58-2.526-10.765-5.854-15.399-9.807c3.712,0.105,7.787-0.087,11.968-0.826c2.53-0.448,4.219-2.867,3.77-5.397
		c-0.449-2.533-2.873-4.217-5.396-3.773c-8.441,1.494-16.468,0.342-21.015-0.629c-1.534-0.707-3.392-0.57-4.815,0.54
		c-0.56,0.441-0.977,0.984-1.276,1.58c-0.036,0.064-0.054,0.134-0.086,0.202c-0.095,0.209-0.179,0.422-0.24,0.643
		c-0.272,0.882-0.308,1.83-0.027,2.741c1.188,3.836,4.025,15.33,2.888,22.368c-0.408,2.539,1.315,4.929,3.855,5.342
		c0.251,0.036,0.501,0.059,0.748,0.059c2.245,0,4.222-1.628,4.591-3.913c0.548-3.401,0.433-7.27,0.027-10.992
		c5.036,4.141,10.605,7.649,16.572,10.348c9.772,4.423,20.16,6.64,30.575,6.64c8.843,0,17.709-1.602,26.228-4.812
		c18.56-6.996,33.283-20.805,41.459-38.879C151.532,88.245,152.184,68.072,145.189,49.512z"/>
	<path fill="#FFFFFF" d="M16.532,48.936C31.292,16.309,69.847,1.775,102.47,16.531c5.441,2.462,10.402,5.596,14.875,9.333
		c-3.711-0.104-7.779,0.088-11.954,0.83c-2.531,0.447-4.223,2.864-3.773,5.396c0.448,2.532,2.873,4.217,5.396,3.773
		c9.057-1.604,17.647-0.159,21.962,0.843c0.068,0.016,0.137,0.011,0.202,0.023c0.219,0.042,0.44,0.067,0.664,0.077
		c0.063,0.002,0.127,0.022,0.19,0.022c0.055,0,0.104-0.016,0.159-0.018c0.19-0.005,0.374-0.027,0.56-0.057
		c0.12-0.018,0.237-0.037,0.356-0.063c0.181-0.045,0.358-0.106,0.538-0.17c0.114-0.045,0.232-0.086,0.344-0.136
		c0.16-0.074,0.311-0.168,0.464-0.261c0.124-0.075,0.246-0.147,0.364-0.235c0.039-0.03,0.086-0.051,0.124-0.082
		c0.098-0.08,0.175-0.175,0.265-0.259c0.078-0.075,0.164-0.13,0.237-0.207c0.022-0.027,0.035-0.059,0.059-0.084
		c0.249-0.281,0.469-0.581,0.639-0.905c0.019-0.031,0.027-0.068,0.045-0.104c0.146-0.291,0.257-0.599,0.336-0.912
		c0.027-0.106,0.047-0.211,0.068-0.317c0.051-0.274,0.074-0.548,0.076-0.828c0-0.093,0.01-0.181,0.003-0.274
		c-0.021-0.368-0.076-0.728-0.185-1.084c-0.004-0.015-0.004-0.031-0.009-0.044c-1.188-3.828-4.028-15.306-2.884-22.366
		c0.414-2.537-1.314-4.929-3.852-5.34c-2.521-0.41-4.93,1.313-5.34,3.853c-0.554,3.4-0.436,7.277-0.029,11.005
		c-4.868-3.932-10.224-7.255-16.06-9.895C69.005-8.827,24.926,7.792,8.048,45.098c-8.177,18.075-8.825,38.253-1.823,56.812
		c0.703,1.866,2.474,3.016,4.358,3.016c0.544,0,1.099-0.098,1.641-0.304c2.406-0.907,3.619-3.592,2.712-5.999
		C8.814,82.392,9.381,64.744,16.532,48.936z"/>
	<path fill="#FFFFFF" d="M60.092,129.476c5.12,1.496,10.316,2.209,15.454,2.209c21.508,0,41.946-12.528,51.165-32.903
		c6.161-13.62,6.65-28.827,1.379-42.825c-0.607-1.606-2.394-2.413-4-1.81c-1.604,0.603-2.414,2.394-1.81,4
		c4.688,12.443,4.255,25.965-1.226,38.076c-10.155,22.445-35.61,34.175-59.225,27.297c-1.64-0.482-3.367,0.465-3.848,2.11
		C57.501,127.275,58.447,128.994,60.092,129.476z"/>
	<path fill="#FFFFFF" d="M88.688,27.646c1.665,0.454,3.361-0.526,3.81-2.181c0.45-1.656-0.528-3.36-2.182-3.81
		c-26.627-7.23-54.225,5.795-65.621,30.977c-6.165,13.626-6.652,28.839-1.37,42.83c0.467,1.243,1.65,2.01,2.902,2.01
		c0.365,0,0.734-0.063,1.097-0.2c1.603-0.604,2.413-2.397,1.807-3.999c-4.693-12.443-4.26-25.967,1.218-38.081
		C40.48,32.801,65.027,21.22,88.688,27.646z"/>
</g>
</svg>
