<?xml version="1.0" encoding="utf-8"?>
<!-- Generator: Adobe Illustrator 16.0.4, SVG Export Plug-In . SVG Version: 6.00 Build 0)  -->
<!DOCTYPE svg PUBLIC "-//W3C//DTD SVG 1.1//EN" "http://www.w3.org/Graphics/SVG/1.1/DTD/svg11.dtd">
<svg version="1.1" id="Layer_1" xmlns="http://www.w3.org/2000/svg" xmlns:xlink="http://www.w3.org/1999/xlink" x="0px" y="0px"
	 width="150px" height="150px" viewBox="0 0 150 150" enable-background="new 0 0 150 150" xml:space="preserve">
<g>
	<path fill="#FFFFFF" d="M139.974,25.949H10.292C5.161,25.949,1,30.106,1,35.237v89.57c0,5.132,4.161,9.289,9.292,9.289h129.682
		c5.132,0,9.292-4.157,9.292-9.289v-89.57C149.266,30.106,145.105,25.949,139.974,25.949z M10.292,35.237h129.682v15.411H10.292
		V35.237z M139.974,124.808H10.292v-64.87h129.682V124.808z"/>
	<path fill="#FFFFFF" d="M24.25,78.869h85.382c1.71,0,3.095-1.39,3.095-3.1c0-1.711-1.385-3.095-3.095-3.095H24.25
		c-1.71,0-3.097,1.384-3.097,3.095C21.153,77.479,22.54,78.869,24.25,78.869z"/>
	<path fill="#FFFFFF" d="M126.472,81.588c3.213,0,5.819-2.602,5.819-5.818c0-3.213-2.606-5.814-5.819-5.814
		c-3.212,0-5.813,2.602-5.813,5.814C120.658,78.986,123.26,81.588,126.472,81.588z"/>
	<path fill="#FFFFFF" d="M23.793,114.812c1.71,0,3.095-1.384,3.095-3.095v-12.23h82.744c1.71,0,3.095-1.384,3.095-3.095
		c0-1.71-1.385-3.099-3.095-3.099H23.793c-1.71,0-3.097,1.389-3.097,3.099v15.325C20.696,113.429,22.083,114.812,23.793,114.812z"/>
	<path fill="#FFFFFF" d="M126.472,93.294c-1.71,0-3.094,1.389-3.094,3.099v12.227H39.652c-1.71,0-3.097,1.389-3.097,3.099
		c0,1.711,1.387,3.095,3.097,3.095h86.819c1.711,0,3.099-1.384,3.099-3.095V96.393C129.57,94.683,128.183,93.294,126.472,93.294z"/>
</g>
</svg>
